<svg width="50" height="38" viewBox="0 0 50 38" fill="none" xmlns="http://www.w3.org/2000/svg">
<path d="M49 0H1C0.734784 0 0.48043 0.105357 0.292893 0.292893C0.105357 0.48043 0 0.734784 0 1V37C0 37.2652 0.105357 37.5196 0.292893 37.7071C0.48043 37.8946 0.734784 38 1 38H49C49.2652 38 49.5196 37.8946 49.7071 37.7071C49.8946 37.5196 50 37.2652 50 37V1C50 0.734784 49.8946 0.48043 49.7071 0.292893C49.5196 0.105357 49.2652 0 49 0ZM14 24V14H36V24H14ZM2 24V14H12V24H2ZM38 14H48V24H38V14ZM48 12H26V2H48V12ZM24 2V12H2V2H24ZM2 26H24V36H2V26ZM26 36V26H48V36H26Z" fill="white"/>
</svg>
