<svg width="56" height="57" viewBox="0 0 56 57" fill="none" xmlns="http://www.w3.org/2000/svg">
<path d="M38.6666 39.1668V46.6335C38.6666 49.6204 38.6666 51.1139 38.0853 52.2548C37.574 53.2583 36.7581 54.0742 35.7545 54.5855C34.6137 55.1668 33.1202 55.1668 30.1333 55.1668H9.86659C6.87964 55.1668 5.38617 55.1668 4.2453 54.5855C3.24177 54.0742 2.42588 53.2583 1.91455 52.2548C1.33325 51.1139 1.33325 49.6204 1.33325 46.6335V26.3668C1.33325 23.3799 1.33325 21.8864 1.91455 20.7455C2.42588 19.742 3.24177 18.9261 4.2453 18.4148C5.38617 17.8335 6.87964 17.8335 9.86659 17.8335H17.3333M25.8666 39.1668H46.1333C49.1202 39.1668 50.6137 39.1668 51.7545 38.5855C52.7581 38.0742 53.574 37.2583 54.0853 36.2548C54.6666 35.1139 54.6666 33.6204 54.6666 30.6335V10.3668C54.6666 7.37988 54.6666 5.88641 54.0853 4.74555C53.574 3.74202 52.7581 2.92612 51.7545 2.41479C50.6137 1.8335 49.1202 1.8335 46.1333 1.8335H25.8666C22.8796 1.8335 21.3862 1.8335 20.2453 2.41479C19.2418 2.92612 18.4259 3.74202 17.9146 4.74555C17.3333 5.88641 17.3333 7.37988 17.3333 10.3668V30.6335C17.3333 33.6204 17.3333 35.1139 17.9146 36.2548C18.4259 37.2583 19.2418 38.0742 20.2453 38.5855C21.3862 39.1668 22.8796 39.1668 25.8666 39.1668Z" stroke="white" stroke-width="2" stroke-linecap="round" stroke-linejoin="round"/>
</svg>
