<svg width="56" height="51" viewBox="0 0 56 51" fill="none" xmlns="http://www.w3.org/2000/svg">
<path d="M15.9999 22.5985H8.26659C6.77311 22.5985 6.02638 22.5985 5.45594 22.8891C4.95418 23.1448 4.54623 23.5527 4.29057 24.0545C3.99992 24.6249 3.99992 25.3717 3.99992 26.8651V49.2651M39.9999 22.5985H47.7333C49.2267 22.5985 49.9735 22.5985 50.5439 22.8891C51.0457 23.1448 51.4536 23.5527 51.7093 24.0545C51.9999 24.6249 51.9999 25.3717 51.9999 26.8651V49.2651M39.9999 49.2651V9.79847C39.9999 6.81152 39.9999 5.31805 39.4186 4.17719C38.9073 3.17366 38.0914 2.35776 37.0879 1.84644C35.947 1.26514 34.4535 1.26514 31.4666 1.26514H24.5333C21.5463 1.26514 20.0528 1.26514 18.912 1.84644C17.9084 2.35776 17.0925 3.17366 16.5812 4.17719C15.9999 5.31805 15.9999 6.81152 15.9999 9.79847V49.2651M54.6666 49.2651H1.33325M25.3333 11.9318H30.6666M25.3333 22.5985H30.6666M25.3333 33.2651H30.6666" stroke="white" stroke-width="2" stroke-linecap="round" stroke-linejoin="round"/>
</svg>
