<svg width="49" height="57" viewBox="0 0 49 57" fill="none" xmlns="http://www.w3.org/2000/svg">
<path d="M47.9999 4.50016L31.9999 4.50016M47.9999 15.1668L31.9999 15.1668M47.9999 25.8335L31.9999 25.8335M6.66659 33.1876V8.50016C6.66659 4.81826 9.65135 1.8335 13.3333 1.8335C17.0152 1.8335 19.9999 4.81826 19.9999 8.50016V33.1876C23.2159 35.3403 25.3333 39.0063 25.3333 43.1668C25.3333 49.7942 19.9607 55.1668 13.3333 55.1668C6.70583 55.1668 1.33325 49.7942 1.33325 43.1668C1.33325 39.0063 3.45062 35.3403 6.66659 33.1876ZM15.9999 43.1668C15.9999 44.6396 14.806 45.8335 13.3333 45.8335C11.8605 45.8335 10.6666 44.6396 10.6666 43.1668C10.6666 41.6941 11.8605 40.5002 13.3333 40.5002C14.806 40.5002 15.9999 41.6941 15.9999 43.1668Z" stroke="white" stroke-width="2" stroke-linecap="round" stroke-linejoin="round"/>
</svg>
