<svg width="64" height="65" viewBox="0 0 64 65" fill="none" xmlns="http://www.w3.org/2000/svg">
<path d="M5.33325 32.5L31.0459 45.3563C31.3957 45.5312 31.5706 45.6187 31.7541 45.6531C31.9165 45.6836 32.0833 45.6836 32.2458 45.6531C32.4292 45.6187 32.6042 45.5312 32.954 45.3563L58.6666 32.5M5.33325 45.8333L31.0459 58.6896C31.3957 58.8646 31.5706 58.952 31.7541 58.9864C31.9165 59.0169 32.0833 59.0169 32.2458 58.9864C32.4292 58.952 32.6042 58.8646 32.954 58.6896L58.6666 45.8333M5.33325 19.1667L31.0459 6.31037C31.3957 6.13546 31.5706 6.04801 31.7541 6.01359C31.9165 5.9831 32.0833 5.9831 32.2458 6.01359C32.4292 6.04801 32.6042 6.13546 32.954 6.31037L58.6666 19.1667L32.954 32.023C32.6042 32.1979 32.4292 32.2853 32.2458 32.3198C32.0833 32.3503 31.9165 32.3503 31.7541 32.3198C31.5706 32.2853 31.3957 32.1979 31.0459 32.023L5.33325 19.1667Z" stroke="white" stroke-width="2" stroke-linecap="round" stroke-linejoin="round"/>
</svg>
