<svg width="38" height="51" viewBox="0 0 38 51" fill="none" xmlns="http://www.w3.org/2000/svg">
<path d="M19.0001 15.6173H31.0001C32.4146 15.6173 33.7711 16.1792 34.7713 17.1794C35.7715 18.1796 36.3334 19.5362 36.3334 20.9507V44.1667C36.3334 45.5812 35.7715 46.9377 34.7713 47.9379C33.7711 48.9381 32.4146 49.5 31.0001 49.5H19.0001M19.0001 15.6173H7.00008C5.58559 15.6173 4.22904 16.1792 3.22884 17.1794C2.22865 18.1796 1.66675 19.5362 1.66675 20.9507V44.1667C1.66675 45.5812 2.22865 46.9377 3.22884 47.9379C4.22904 48.9381 5.58559 49.5 7.00008 49.5H19.0001M19.0001 15.6173V49.5M6.00008 5.73467L10.3334 1.5L14.6667 5.73467M23.3334 1.5L27.6667 5.73467L32.0001 1.5" stroke="white" stroke-width="2" stroke-linecap="round" stroke-linejoin="round"/>
</svg>
