<svg width="50" height="50" viewBox="0 0 50 50" fill="none" xmlns="http://www.w3.org/2000/svg">
<path d="M1 25H49M25 1V49M13.8 1H36.2C40.6804 1 42.9206 1 44.6319 1.87195C46.1372 2.63893 47.3611 3.86278 48.1281 5.36808C49 7.07937 49 9.31958 49 13.8V36.2C49 40.6804 49 42.9206 48.1281 44.6319C47.3611 46.1372 46.1372 47.3611 44.6319 48.1281C42.9206 49 40.6804 49 36.2 49H13.8C9.31958 49 7.07937 49 5.36808 48.1281C3.86278 47.3611 2.63893 46.1372 1.87195 44.6319C1 42.9206 1 40.6804 1 36.2V13.8C1 9.31958 1 7.07937 1.87195 5.36808C2.63893 3.86278 3.86278 2.63893 5.36808 1.87195C7.07937 1 9.31958 1 13.8 1Z" stroke="white" stroke-width="2" stroke-linecap="round" stroke-linejoin="round"/>
</svg>
