<svg width="40" height="40" viewBox="0 0 40 40" fill="none" xmlns="http://www.w3.org/2000/svg">
<rect x="0.5" y="0.5" width="39" height="39" rx="19.5" stroke="#1F1F1F"/>
<path fill-rule="evenodd" clip-rule="evenodd" d="M11.2625 26.5568C10.8702 26.4408 10.5123 26.2343 10.219 25.9549C9.9256 25.6754 9.7054 25.3312 9.57695 24.9512C8.84292 22.9874 8.62543 14.7869 10.0391 13.1681C10.5096 12.6414 11.1739 12.3172 11.8878 12.2658C15.6802 11.8677 27.3975 11.9208 28.7432 12.3985C29.1217 12.5183 29.4675 12.7203 29.7547 12.9891C30.0419 13.258 30.263 13.5868 30.4015 13.951C31.2035 15.9812 31.2307 23.3589 30.2928 25.3095C30.044 25.8173 29.6275 26.2285 29.1102 26.4772C27.6965 27.1672 13.1383 27.1539 11.2625 26.5568ZM17.2842 22.7087L24.0808 19.2587L17.2842 15.7821V22.7087Z" fill="#1F1F1F"/>
</svg>
